<svg xmlns="http://www.w3.org/2000/svg" xmlns:xlink="http://www.w3.org/1999/xlink" width="512" height="512" viewBox="0 0 512 512">
  <defs>
    <clipPath id="clip-Icon_2">
      <rect width="512" height="512"/>
    </clipPath>
  </defs>
  <g id="Icon_2" data-name="Icon – 2" clip-path="url(#clip-Icon_2)">
    <path id="Path_1" data-name="Path 1" d="M260.8,108.874a99.063,99.063,0,0,0-3-13c-16.452-53.921-62.18-90.349-114-91h-1c-.492,0-.508-.011-1,0-.482-.011-1.518,0-2,0h-1c-51.821.648-97.55,37.077-114,91a97.38,97.38,0,0,0-3,13,123.974,123.974,0,0,0,7,65c.26.666.73,1.355,1,2,14.228,34.184,41.98,80.333,54,112,1.531,4,5.048,7.006,9,7h97c3.952.006,7.469-3,9-7,12.02-31.667,40.772-77.816,55-112,.27-.645-.26-1.334,0-2A123.779,123.779,0,0,0,260.8,108.874Z" transform="translate(114.695 49.378)" fill="#fff0b1" stroke="#5a5a5a" stroke-width="10"/>
    <path id="Rectangle_5" data-name="Rectangle 5" d="M8,0H8a8,8,0,0,1,8,8V67a0,0,0,0,1,0,0H0a0,0,0,0,1,0,0V8A8,8,0,0,1,8,0Z" transform="translate(247.997 307.752)" fill="#5a5a5a"/>
    <g id="Fire" transform="translate(-0.003 -10.248)">
      <path id="Path_3" data-name="Path 3" d="M59,0s36.972,33.675,54.976,69.482C124.153,89.722,123.369,113.625,118,125c-14.75,31.25-103.25,31.25-118,0-2.179-4.617-6.6-22.085,4.286-42.431S30.665,62.907,43.545,43.617C56.025,24.926,59,0,59,0Z" transform="translate(196 174)" fill="#e3cf60"/>
      <path id="Path_4" data-name="Path 4" d="M41.418,26.125S18.4,49.9,11.325,58.453-5.863,81.875-1.989,90.083c4.776,10.119,19.351,14.043,37.367,13.974,14.291-.054,32.1-3.438,38.653-6.916,5.744-3.049,4.305-13.58-3.292-21.868C64.334,68.286,51.5,69.284,44.168,57S41.418,26.125,41.418,26.125Z" transform="translate(220 218.338)" fill="#d0ad5e"/>
    </g>
    <rect id="Rectangle_9" data-name="Rectangle 9" width="111" height="18" rx="5" transform="translate(200.424 374.624) rotate(-5)" fill="#5a5a5a"/>
    <rect id="Rectangle_10" data-name="Rectangle 10" width="111" height="18" rx="5" transform="translate(200.424 402.624) rotate(-5)" fill="#5a5a5a"/>
    <path id="Path_5" data-name="Path 5" d="M6,0,72.695-9C76.008-9,78.174-.25,80,6s1.5,6,0,10-2.686,6-6,6H6a6,6,0,0,1-6-6V6A6,6,0,0,1,6,0Z" transform="translate(214.997 429.752)" fill="#5a5a5a"/>
    <rect id="Rectangle_11" data-name="Rectangle 11" width="31" height="18" rx="5" transform="translate(239.997 439.752)" fill="#5a5a5a"/>
  </g>
</svg>
